<svg width="81" height="95" viewBox="0 0 81 95" fill="none" xmlns="http://www.w3.org/2000/svg">
<g filter="url(#filter0_d_1_338)">
<path d="M33.5 55C43.165 55 51 47.165 51 37.5C51 27.835 43.165 20 33.5 20C23.835 20 16 27.835 16 37.5C16 47.165 23.835 55 33.5 55Z" fill="white"/>
</g>
<path d="M33.9624 28.9945L25 37.536L33.5415 46.4984L42.5039 37.9569L33.9624 28.9945Z" stroke="#D97D54" stroke-width="2.00028" stroke-miterlimit="10" stroke-linecap="round" stroke-linejoin="round"/>
<path d="M25.475 37.193C27.1847 37.4799 28.9411 37.1803 30.459 36.343C31.859 35.543 32.984 34.043 35.842 34.693C35.3112 34.9103 34.8671 35.297 34.579 35.793C34.114 36.843 35.709 37.293 36.772 37.393C38.3895 37.4596 40.0096 37.4262 41.623 37.293" stroke="#D97D54" stroke-width="2" stroke-miterlimit="10" stroke-linecap="round" stroke-linejoin="round"/>
<defs>
<filter id="filter0_d_1_338" x="-14" y="0" width="95" height="95" filterUnits="userSpaceOnUse" color-interpolation-filters="sRGB">
<feFlood flood-opacity="0" result="BackgroundImageFix"/>
<feColorMatrix in="SourceAlpha" type="matrix" values="0 0 0 0 0 0 0 0 0 0 0 0 0 0 0 0 0 0 127 0" result="hardAlpha"/>
<feOffset dy="10"/>
<feGaussianBlur stdDeviation="15"/>
<feColorMatrix type="matrix" values="0 0 0 0 0.258824 0 0 0 0 0.34902 0 0 0 0 0.396078 0 0 0 0.161 0"/>
<feBlend mode="normal" in2="BackgroundImageFix" result="effect1_dropShadow_1_338"/>
<feBlend mode="normal" in="SourceGraphic" in2="effect1_dropShadow_1_338" result="shape"/>
</filter>
</defs>
</svg>
