<svg width="35" height="35" viewBox="0 0 35 35" fill="none" xmlns="http://www.w3.org/2000/svg">
<path d="M17.5 35C27.165 35 35 27.165 35 17.5C35 7.83502 27.165 0 17.5 0C7.83502 0 0 7.83502 0 17.5C0 27.165 7.83502 35 17.5 35Z" fill="white"/>
<path d="M17.9624 8.99447L9 17.536L17.5415 26.4984L26.5039 17.9569L17.9624 8.99447Z" stroke="#D97D54" stroke-width="2.00028" stroke-miterlimit="10" stroke-linecap="round" stroke-linejoin="round"/>
<path d="M9.475 17.193C11.1847 17.4799 12.9411 17.1803 14.459 16.343C15.859 15.543 16.984 14.043 19.842 14.693C19.3112 14.9103 18.8671 15.297 18.579 15.793C18.114 16.843 19.709 17.293 20.772 17.393C22.3895 17.4596 24.0096 17.4262 25.623 17.293" stroke="#D97D54" stroke-width="2" stroke-miterlimit="10" stroke-linecap="round" stroke-linejoin="round"/>
</svg>
